<svg width="30" height="30" viewBox="0 0 30 30" fill="none" xmlns="http://www.w3.org/2000/svg">
<path d="M26.25 10C24.375 10 23.375 11.75 23.875 13.125L19.375 17.625C19 17.5 18.5 17.5 18.125 17.625L14.875 14.375C15.375 13 14.375 11.25 12.5 11.25C10.75 11.25 9.625 13 10.125 14.375L4.375 20C3 19.625 1.25 20.625 1.25 22.5C1.25 23.875 2.375 25 3.75 25C5.5 25 6.625 23.25 6.125 21.875L11.75 16.125C12.125 16.25 12.625 16.25 13 16.125L16.25 19.375C15.875 20.625 16.875 22.5 18.75 22.5C20.625 22.5 21.625 20.75 21.125 19.375L25.625 14.875C27 15.25 28.75 14.25 28.75 12.5C28.75 11.125 27.625 10 26.25 10ZM18.75 11.25L19.875 8.625L22.5 7.5L19.875 6.375L18.75 3.75L17.625 6.375L15 7.5L17.625 8.625L18.75 11.25ZM4.375 13.75L5 11.25L7.5 10.625L5 10L4.375 7.5L3.75 10L1.25 10.625L3.75 11.25L4.375 13.75Z" fill="url(#paint0_linear_1705_693)"/>
<defs>
<linearGradient id="paint0_linear_1705_693" x1="1.25" y1="14.375" x2="28.75" y2="14.375" gradientUnits="userSpaceOnUse">
<stop stop-color="#F302C9"/>
<stop offset="1" stop-color="#8D0175"/>
</linearGradient>
</defs>
</svg>
