<svg width="30" height="30" viewBox="0 0 30 30" fill="none" xmlns="http://www.w3.org/2000/svg">
<path d="M13.75 10H16.25V17.5H13.75V10ZM18.75 1.25H11.25V3.75H18.75V1.25ZM15 25C10.1625 25 6.25 21.0875 6.25 16.25C6.25 11.4125 10.1625 7.5 15 7.5C19.8375 7.5 23.75 11.4125 23.75 16.25C24.625 16.25 25.45 16.4125 26.25 16.6875C26.25 16.5375 26.25 16.4 26.25 16.25C26.25 13.6 25.325 11.1625 23.7875 9.2375L25.5625 7.4625C25 6.825 24.4375 6.25 23.8 5.7L22.025 7.5C20.0875 5.925 17.65 5 15 5C8.7875 5 3.75 10.0375 3.75 16.25C3.75 22.4625 8.7875 27.5 15 27.5C15.7375 27.5 16.45 27.425 17.1375 27.2875C16.75 26.5625 16.475 25.75 16.35 24.8875C15.9 24.95 15.4625 25 15 25ZM26.675 19.8L22.1875 24.2875L20.2 22.3L18.75 23.75L22.1875 27.5L28.125 21.5625L26.675 19.8Z" fill="url(#paint0_linear_1705_675)"/>
<defs>
<linearGradient id="paint0_linear_1705_675" x1="3.75" y1="14.375" x2="28.125" y2="14.375" gradientUnits="userSpaceOnUse">
<stop stop-color="#FFD500"/>
<stop offset="1" stop-color="#E0BA00"/>
</linearGradient>
</defs>
</svg>
