<svg width="30" height="30" viewBox="0 0 30 30" fill="none" xmlns="http://www.w3.org/2000/svg">
<path d="M18.538 27.9811H5.73672C4.22969 27.9811 3.00391 26.755 3.00391 25.2482V4.87637C3.00391 3.36934 4.22998 2.14355 5.73672 2.14355H24.3965C25.9035 2.14355 27.1293 3.36963 27.1293 4.87637V20.2789C27.1293 20.791 26.8618 21.3166 26.1751 22.1533C25.7816 22.6329 25.2396 23.2238 24.5646 23.9094C23.604 24.8847 22.658 25.7653 22.3671 26.0334C21.9276 26.6369 21.3516 27.1279 20.6861 27.4664C20.0206 27.8049 19.2846 27.9812 18.538 27.9811ZM5.73672 4.37012C5.45752 4.37012 5.23047 4.59717 5.23047 4.87637V25.2482C5.23047 25.5274 5.45752 25.7545 5.73672 25.7545H18.538C18.9458 25.7546 19.3474 25.6553 19.7082 25.4652C20.069 25.2752 20.3781 25.0001 20.6087 24.6638L20.6811 24.5583L20.7757 24.4719C20.7854 24.4631 21.7598 23.5713 22.7775 22.5494C24.3643 20.9565 24.7935 20.3208 24.9027 20.1277V4.87637C24.9027 4.59717 24.6757 4.37012 24.3965 4.37012H5.73672Z" fill="url(#paint0_linear_1705_672)"/>
<path d="M19.7041 26.6255C19.0892 26.6255 18.5908 26.1271 18.5908 25.5122V20.2666C18.5908 18.8155 19.7715 17.6349 21.2226 17.6349H25.6827C26.2977 17.6349 26.796 18.1332 26.796 18.7481C26.796 19.3631 26.2977 19.8614 25.6827 19.8614H21.2226C20.9993 19.8614 20.8174 20.0431 20.8174 20.2666V25.5119C20.8174 26.1271 20.319 26.6255 19.7041 26.6255ZM14.2136 9.83984H8.53525C7.92031 9.83984 7.42197 9.3415 7.42197 8.72656C7.42197 8.11162 7.92031 7.61328 8.53525 7.61328H14.2136C14.8285 7.61328 15.3269 8.11162 15.3269 8.72656C15.3269 9.3415 14.8285 9.83984 14.2136 9.83984ZM17.5921 14.9996H8.49219C7.87725 14.9996 7.37891 14.5013 7.37891 13.8863C7.37891 13.2714 7.87725 12.773 8.49219 12.773H17.5924C18.2073 12.773 18.7057 13.2714 18.7057 13.8863C18.7054 14.5013 18.207 14.9996 17.5921 14.9996Z" fill="url(#paint1_linear_1705_672)"/>
<defs>
<linearGradient id="paint0_linear_1705_672" x1="3.00391" y1="15.0623" x2="27.1293" y2="15.0623" gradientUnits="userSpaceOnUse">
<stop stop-color="#E60154"/>
<stop offset="1" stop-color="#DF0051"/>
</linearGradient>
<linearGradient id="paint1_linear_1705_672" x1="7.37891" y1="17.1194" x2="26.796" y2="17.1194" gradientUnits="userSpaceOnUse">
<stop stop-color="#E60154"/>
<stop offset="1" stop-color="#DF0051"/>
</linearGradient>
</defs>
</svg>
