<svg width="30" height="30" viewBox="0 0 30 30" fill="none" xmlns="http://www.w3.org/2000/svg">
<path d="M25 6.25H11.25C9.875 6.25 8.75 7.375 8.75 8.75V26.25L13.75 21.25H25C26.375 21.25 27.5 20.125 27.5 18.75V8.75C27.5 7.375 26.375 6.25 25 6.25ZM25 18.75H12.75L11.25 20.25V8.75H25V18.75ZM3.75 8.75C3 8.75 2.5 9.25 2.5 10C2.5 10.75 3 11.25 3.75 11.25H6.25V8.75H3.75ZM2.5 13.75C1.75 13.75 1.25 14.25 1.25 15C1.25 15.75 1.75 16.25 2.5 16.25H6.25V13.75H2.5ZM1.25 18.75C0.5 18.75 0 19.25 0 20C0 20.75 0.5 21.25 1.25 21.25H6.25V18.75H1.25Z" fill="url(#paint0_linear_1705_695)"/>
<defs>
<linearGradient id="paint0_linear_1705_695" x1="13.75" y1="6.25" x2="13.75" y2="26.25" gradientUnits="userSpaceOnUse">
<stop stop-color="#FCAA67"/>
<stop offset="1" stop-color="#CE5C00"/>
</linearGradient>
</defs>
</svg>
