<svg width="14" height="14" viewBox="0 0 14 14" fill="none" xmlns="http://www.w3.org/2000/svg">
<path d="M5.21356 6.41699H4.05514V7.58366H5.21356V6.41699ZM7.53042 6.41699H6.37199V7.58366H7.53042V6.41699ZM9.84727 6.41699H8.68885V7.58366H9.84727V6.41699ZM11.0057 2.33366H10.4265V1.16699H9.26806V2.33366H4.63435V1.16699H3.47592V2.33366H2.89671C2.25378 2.33366 1.73828 2.85866 1.73828 3.50033V11.667C1.73828 11.9764 1.86033 12.2732 2.07758 12.4919C2.29482 12.7107 2.58947 12.8337 2.89671 12.8337H11.0057C11.3129 12.8337 11.6076 12.7107 11.8248 12.4919C12.0421 12.2732 12.1641 11.9764 12.1641 11.667V3.50033C12.1641 3.19091 12.0421 2.89416 11.8248 2.67537C11.6076 2.45658 11.3129 2.33366 11.0057 2.33366ZM11.0057 11.667H2.89671V5.25033H11.0057V11.667Z" fill="#494949"/>
</svg>
