<svg width="30" height="30" viewBox="0 0 30 30" fill="none" xmlns="http://www.w3.org/2000/svg">
<path d="M19.0661 6.79297H9.50327C8.97527 6.79297 8.54688 7.21657 8.54688 7.73857C8.54688 8.26057 8.97527 8.68417 9.50327 8.68417H19.0661C19.5941 8.68417 20.0225 8.26057 20.0225 7.73857C20.0225 7.21657 19.5941 6.79297 19.0661 6.79297ZM19.0661 11.203H9.50327C8.97527 11.203 8.54688 11.6266 8.54688 12.1486C8.54688 12.6706 8.97527 13.093 9.50327 13.093H19.0661C19.5941 13.093 20.0225 12.6694 20.0225 12.1486C20.0225 11.6266 19.5941 11.203 19.0661 11.203ZM13.9661 15.613H9.50327C8.97527 15.613 8.54688 16.0366 8.54688 16.5586C8.54688 17.0806 8.97527 17.5042 9.50327 17.5042H13.9661C14.4941 17.5042 14.9225 17.0806 14.9225 16.5586C14.9225 16.0366 14.4941 15.613 13.9661 15.613Z" fill="url(#paint0_linear_1705_682)"/>
<path d="M24.4859 3.32841C24.4859 2.80641 24.0575 2.38281 23.5295 2.38281H5.04234C4.51434 2.38281 4.08594 2.80641 4.08594 3.32841V26.6384C4.08594 27.1604 4.51434 27.584 5.04234 27.584H13.9415C14.4479 27.584 14.8919 27.2024 14.9219 26.6972C14.9543 26.1488 14.5199 25.694 13.9787 25.694H6.63594L6.56154 25.6892C6.23994 25.652 5.99874 25.3832 5.99874 25.064V4.90401L6.00354 4.83081C6.04194 4.51401 6.31314 4.27401 6.63594 4.27401H21.9359C22.1051 4.27401 22.2671 4.34001 22.3871 4.45881C22.5071 4.57641 22.5743 4.73721 22.5743 4.90401V13.1432C22.5743 13.1456 22.5767 13.148 22.5791 13.148H24.4811C24.4835 13.148 24.4859 13.1456 24.4859 13.1432V3.32841Z" fill="url(#paint1_linear_1705_682)"/>
<path d="M23.5296 14.0763C23.004 14.0763 22.5732 13.6455 22.5732 13.1199V10.7835C22.5732 10.2579 23.004 9.82715 23.5296 9.82715C24.0552 9.82715 24.486 10.2579 24.486 10.7835V13.1199C24.486 13.6455 24.0552 14.0763 23.5296 14.0763ZM25.5324 18.9147L18.8268 25.6203C18.6526 25.7944 18.4165 25.8921 18.1704 25.8921C17.9242 25.8921 17.6881 25.7944 17.514 25.6203C17.3399 25.4462 17.2422 25.2101 17.2422 24.9639C17.2422 24.7178 17.3399 24.4817 17.514 24.3075L24.2196 17.6019C24.3937 17.4279 24.6298 17.3302 24.876 17.3302C25.1221 17.3302 25.3582 17.4279 25.5324 17.6019C25.6188 17.688 25.6874 17.7903 25.7342 17.903C25.781 18.0156 25.805 18.1364 25.805 18.2583C25.805 18.3803 25.781 18.5011 25.7342 18.6137C25.6874 18.7264 25.6188 18.8287 25.5324 18.9147Z" fill="url(#paint2_linear_1705_682)"/>
<path d="M17.424 25.6196L14.514 22.7096C14.3399 22.5355 14.2422 22.2994 14.2422 22.0532C14.2422 21.807 14.3399 21.5709 14.514 21.3968C14.6881 21.2228 14.9242 21.125 15.1704 21.125C15.4165 21.125 15.6526 21.2228 15.8268 21.3968L18.7368 24.3068C18.9108 24.4809 19.0085 24.717 19.0085 24.9632C19.0085 25.2094 18.9108 25.4455 18.7368 25.6196C18.5626 25.7936 18.3265 25.8914 18.0804 25.8914C17.8342 25.8914 17.5981 25.7936 17.424 25.6196Z" fill="url(#paint3_linear_1705_682)"/>
<defs>
<linearGradient id="paint0_linear_1705_682" x1="8.54688" y1="12.1486" x2="20.0225" y2="12.1486" gradientUnits="userSpaceOnUse">
<stop stop-color="#0041A6"/>
<stop offset="1" stop-color="#0B2E64"/>
</linearGradient>
<linearGradient id="paint1_linear_1705_682" x1="4.08594" y1="14.9834" x2="24.4859" y2="14.9834" gradientUnits="userSpaceOnUse">
<stop stop-color="#0041A6"/>
<stop offset="1" stop-color="#0B2E64"/>
</linearGradient>
<linearGradient id="paint2_linear_1705_682" x1="17.2422" y1="17.8596" x2="25.805" y2="17.8596" gradientUnits="userSpaceOnUse">
<stop stop-color="#0041A6"/>
<stop offset="1" stop-color="#0B2E64"/>
</linearGradient>
<linearGradient id="paint3_linear_1705_682" x1="14.2422" y1="23.5082" x2="19.0085" y2="23.5082" gradientUnits="userSpaceOnUse">
<stop stop-color="#0041A6"/>
<stop offset="1" stop-color="#0B2E64"/>
</linearGradient>
</defs>
</svg>
