<svg width="30" height="30" viewBox="0 0 30 30" fill="none" xmlns="http://www.w3.org/2000/svg">
<path d="M15 26.875C13.3125 25.8125 10.25 25 8.125 25C6.0625 25 3.9375 25.375 2.1875 26.3125C2.0625 26.375 2 26.375 1.875 26.375C1.5625 26.375 1.25 26.0625 1.25 25.75V7.5C2 6.9375 2.8125 6.5625 3.75 6.25C5.1375 5.8125 6.6625 5.625 8.125 5.625C10.5625 5.625 13.1875 6.125 15 7.5C16.8125 6.125 19.4375 5.625 21.875 5.625C23.3375 5.625 24.8625 5.8125 26.25 6.25C27.1875 6.5625 28 6.9375 28.75 7.5V25.75C28.75 26.0625 28.4375 26.375 28.125 26.375C28 26.375 27.9375 26.375 27.8125 26.3125C26.0625 25.375 23.9375 25 21.875 25C19.75 25 16.6875 25.8125 15 26.875ZM13.75 9.375C12.05 8.625 9.8 8.125 8.125 8.125C6.625 8.125 5.125 8.3125 3.75 8.75V23.125C5.125 22.6875 6.625 22.5 8.125 22.5C9.8 22.5 12.05 23 13.75 23.75V9.375ZM16.25 23.75C17.95 23 20.2 22.5 21.875 22.5C23.375 22.5 24.875 22.6875 26.25 23.125V8.75C24.875 8.3125 23.375 8.125 21.875 8.125C20.2 8.125 17.95 8.625 16.25 9.375V23.75ZM17.5 20.4375C18.7 20 20.15 19.7875 21.875 19.7875C23.175 19.7875 24.225 19.8875 25 20.0875V18.2125C23.9125 18.0125 22.8625 17.9125 21.875 17.9125C20.2 17.9125 18.75 18.125 17.5 18.45V20.4375ZM17.5 17.1125C18.7 16.675 20.15 16.45 21.875 16.45C23.175 16.45 24.225 16.55 25 16.75V14.875C23.9125 14.675 22.8625 14.5875 21.875 14.5875C20.275 14.5875 18.8125 14.775 17.5 15.15V17.1125ZM17.5 13.75C18.7 13.3375 20.15 13.125 21.875 13.125C23.0125 13.125 24.075 13.2375 25 13.475V11.5375C23.9125 11.35 22.8625 11.25 21.875 11.25C20.225 11.25 18.75 11.4375 17.5 11.825V13.75Z" fill="#1F73C2"/>
</svg>
