<svg width="30" height="30" viewBox="0 0 30 30" fill="none" xmlns="http://www.w3.org/2000/svg">
<path d="M11.25 3.75C12.5761 3.75 13.8479 4.27678 14.7855 5.21447C15.7232 6.15215 16.25 7.42392 16.25 8.75H6.25C6.25 7.42392 6.77678 6.15215 7.71447 5.21447C8.65215 4.27678 9.92392 3.75 11.25 3.75ZM14.8 12.275L13.75 22.5H12.5V23.75C12.5 24.413 12.7634 25.0489 13.2322 25.5178C13.7011 25.9866 14.337 26.25 15 26.25C15.663 26.25 16.2989 25.9866 16.7678 25.5178C17.2366 25.0489 17.5 24.413 17.5 23.75V17.5C17.5 16.1739 18.0268 14.9021 18.9645 13.9645C19.9021 13.0268 21.1739 12.5 22.5 12.5H25L23.75 13.75L25 15H22.5C21.837 15 21.2011 15.2634 20.7322 15.7322C20.2634 16.2011 20 16.837 20 17.5V23.75C20 25.0761 19.4732 26.3479 18.5355 27.2855C17.5979 28.2232 16.3261 28.75 15 28.75C13.6739 28.75 12.4021 28.2232 11.4645 27.2855C10.5268 26.3479 10 25.0761 10 23.75V22.5H8.75L7.7 12.275C7.0875 11.65 6.6375 10.875 6.4125 10H16.0875C15.8625 10.875 15.4125 11.65 14.8 12.275ZM11.25 13.75C10.9185 13.75 10.6005 13.8817 10.3661 14.1161C10.1317 14.3505 10 14.6685 10 15C10 15.3315 10.1317 15.6495 10.3661 15.8839C10.6005 16.1183 10.9185 16.25 11.25 16.25C11.5815 16.25 11.8995 16.1183 12.1339 15.8839C12.3683 15.6495 12.5 15.3315 12.5 15C12.5 14.6685 12.3683 14.3505 12.1339 14.1161C11.8995 13.8817 11.5815 13.75 11.25 13.75Z" fill="url(#paint0_linear_1705_689)"/>
<defs>
<linearGradient id="paint0_linear_1705_689" x1="6.25" y1="16.25" x2="25" y2="16.25" gradientUnits="userSpaceOnUse">
<stop stop-color="#4851A6"/>
<stop offset="1" stop-color="#0010A9"/>
</linearGradient>
</defs>
</svg>
