<svg width="15" height="16" viewBox="0 0 15 16" fill="none" xmlns="http://www.w3.org/2000/svg">
<path d="M7.58333 13.666C4.45958 13.666 1.91667 11.1231 1.91667 7.99935C1.91667 4.8756 4.45958 2.33268 7.58333 2.33268C10.7071 2.33268 13.25 4.8756 13.25 7.99935C13.25 11.1231 10.7071 13.666 7.58333 13.666ZM7.58333 0.916016C3.66625 0.916016 0.5 4.08227 0.5 7.99935C0.5 11.9164 3.66625 15.0827 7.58333 15.0827C11.5004 15.0827 14.6667 11.9164 14.6667 7.99935C14.6667 4.08227 11.5004 0.916016 7.58333 0.916016ZM9.41792 5.16602L7.58333 7.0006L5.74875 5.16602L4.75 6.16477L6.58458 7.99935L4.75 9.83393L5.74875 10.8327L7.58333 8.9981L9.41792 10.8327L10.4167 9.83393L8.58208 7.99935L10.4167 6.16477L9.41792 5.16602Z" fill="#FF0000"/>
</svg>
