<svg width="20" height="20" viewBox="0 0 20 20" fill="none" xmlns="http://www.w3.org/2000/svg">
<rect x="0.5" y="0.5" width="19" height="19" rx="9.5" fill="white"/>
<rect x="0.5" y="0.5" width="19" height="19" rx="9.5" stroke="black"/>
<path d="M7 13.5C7 13.7652 7.10536 14.0196 7.29289 14.2071C7.48043 14.3946 7.73478 14.5 8 14.5H12C12.2652 14.5 12.5196 14.3946 12.7071 14.2071C12.8946 14.0196 13 13.7652 13 13.5V7.5H7V13.5ZM8 8.5H12V13.5H8V8.5ZM11.75 6L11.25 5.5H8.75L8.25 6H6.5V7H13.5V6H11.75Z" fill="black"/>
</svg>
