<svg width="14" height="14" viewBox="0 0 14 14" fill="none" xmlns="http://www.w3.org/2000/svg">
<path d="M2.25 8.25V6.75H5.25V8.25H2.25ZM1.5 9.75H7.0125C6.8475 10.2225 6.75 10.725 6.75 11.25H0V6C0 5.175 0.6675 4.5 1.5 4.5H2.25V0H9.75V4.5H10.5C11.3325 4.5 12 5.175 12 6V6.8175C11.7525 6.78 11.505 6.75 11.25 6.75C10.995 6.75 10.7475 6.78 10.5 6.8175V6H1.5V9.75ZM3.75 4.5H8.25V1.5H3.75V4.5ZM13.005 8.88L10.3125 11.5725L9.12 10.38L8.25 11.25L10.3125 13.5L13.875 9.9375L13.005 8.88Z" fill="black"/>
</svg>
