<svg width="58" height="58" viewBox="0 0 58 58" fill="none" xmlns="http://www.w3.org/2000/svg">
<rect width="58" height="58" rx="29" fill="url(#paint0_linear_3675_1192)" fill-opacity="0.05"/>
<path d="M39.4125 19.8375L37.3375 17.75L35.25 19.8375L33.1625 17.75L31.0875 19.8375L29 17.75L26.9125 19.8375L24.8375 17.75L22.75 19.8375L20.6625 17.75L18.5875 19.8375L16.5 17.75V37.75C16.5 39.1375 17.625 40.25 19 40.25H30C29.3625 39.15 29 37.8625 29 36.5C29 34.9625 29.4625 33.5375 30.25 32.35V30.25H32.35C33.5375 29.4625 34.9625 29 36.5 29C38.4125 29 40.1625 29.725 41.5 30.875V17.75L39.4125 19.8375ZM27.75 37.75H19V30.25H27.75V37.75ZM39 27.75H19V24H39V27.75ZM34.9375 40.45L31.5 36.7L32.95 35.25L34.9375 37.2375L39.425 32.75L40.875 34.5125L34.9375 40.45Z" fill="url(#paint1_linear_3675_1192)"/>
<defs>
<linearGradient id="paint0_linear_3675_1192" x1="29" y1="0" x2="29" y2="58" gradientUnits="userSpaceOnUse">
<stop stop-color="#B05DD0"/>
<stop offset="1" stop-color="#8600BB"/>
</linearGradient>
<linearGradient id="paint1_linear_3675_1192" x1="29" y1="17.75" x2="29" y2="40.45" gradientUnits="userSpaceOnUse">
<stop stop-color="#B05DD0"/>
<stop offset="1" stop-color="#8600BB"/>
</linearGradient>
</defs>
</svg>
