<svg width="42" height="40" viewBox="0 0 42 40" fill="none" xmlns="http://www.w3.org/2000/svg">
<path d="M21.2143 3.03125L30.3054 12.1223V30.3045C30.3054 31.1082 29.9861 31.879 29.4178 32.4473C28.8495 33.0156 28.0787 33.3348 27.275 33.3348H9.09286C8.28916 33.3348 7.51837 33.0156 6.95007 32.4473C6.38177 31.879 6.0625 31.1082 6.0625 30.3045V6.06161C6.0625 5.25791 6.38177 4.48712 6.95007 3.91882C7.51837 3.35052 8.28916 3.03125 9.09286 3.03125H21.2143ZM27.275 30.3045V13.6375H19.6991V6.06161H9.09286V30.3045H27.275ZM18.1839 18.183L24.2446 24.2438H20.4567V28.7893H15.9112V24.2438H12.1232L18.1839 18.183Z" fill="black"/>
<path d="M32.467 24.2871C36.3955 24.2871 39.6098 27.5014 39.6098 31.4299C39.6098 35.3584 36.3955 38.5727 32.467 38.5727C28.5385 38.5727 25.3242 35.3584 25.3242 31.4299C25.3242 27.5014 28.5385 24.2871 32.467 24.2871ZM35.3241 35.0013V33.5727H29.6099V35.0013H35.3241ZM35.3241 30.0013L32.467 27.1442L29.6099 30.0013H31.3956V32.8585H33.5384V30.0013H35.3241Z" fill="#0066FF"/>
</svg>
