<svg width="24" height="24" viewBox="0 0 24 24" fill="none" xmlns="http://www.w3.org/2000/svg">
<path d="M20.5 11.11V11.3148L20.6436 11.4607C21.7951 12.6307 22.5 14.2261 22.5 16C22.5 19.5939 19.5939 22.5 16 22.5C14.2261 22.5 12.6307 21.7951 11.4607 20.6436L11.3148 20.5H11.11H5C4.17451 20.5 3.5 19.8322 3.5 19V5C3.5 4.17614 4.17614 3.5 5 3.5H9.18H9.53073L9.65013 3.17022C10.0027 2.19634 10.9228 1.5 12 1.5C13.0772 1.5 13.9973 2.19634 14.3499 3.17022L14.4693 3.5H14.82H19C19.8322 3.5 20.5 4.17451 20.5 5V11.11ZM4.5 19V19.5H5H9.68H10.4693L10.1321 18.7864C9.7315 17.9387 9.5 17.0013 9.5 16C9.5 15.6897 9.52734 15.3852 9.57436 15.0749L9.66146 14.5H9.08H7.5V13.5H9.68H9.99462L10.1308 13.2164C10.4699 12.5099 10.8966 11.8829 11.4444 11.3625L12.3523 10.5H11.1H7.5V9.5H16C17.0013 9.5 17.9387 9.7315 18.7864 10.1321L19.5 10.4693V9.68V5V4.5H19H17H16.5V5V6.5H7.5V5V4.5H7H5H4.5V5V19ZM16 16.25V16.5353L16.2456 16.6805L18.6676 18.1116L18.4428 18.4773L15.5 16.7165V12.5H16V16.25ZM13.5 4C13.5 3.17386 12.8261 2.5 12 2.5C11.1739 2.5 10.5 3.17386 10.5 4C10.5 4.82614 11.1739 5.5 12 5.5C12.8261 5.5 13.5 4.82614 13.5 4ZM10.5 16C10.5 19.0361 12.9639 21.5 16 21.5C19.0361 21.5 21.5 19.0361 21.5 16C21.5 12.9639 19.0361 10.5 16 10.5C12.9639 10.5 10.5 12.9639 10.5 16Z" fill="black" stroke="black"/>
</svg>
