<svg width="30" height="30" viewBox="0 0 30 30" fill="none" xmlns="http://www.w3.org/2000/svg">
<path d="M15.7875 2.5C22.7 2.5 28.3 8.125 28.3 15C28.3 21.875 22.7 27.5 15.7875 27.5C11.4 27.5 7.5625 25.225 5.325 21.7875L7.3 20.225C9.0625 23.0875 12.2 25 15.8 25C18.4522 25 20.9957 23.9464 22.8711 22.0711C24.7464 20.1957 25.8 17.6522 25.8 15C25.8 12.3478 24.7464 9.8043 22.8711 7.92893C20.9957 6.05357 18.4522 5 15.8 5C10.7 5 6.5 8.825 5.8875 13.75H9.3375L4.6625 18.4125L0 13.75H3.3625C3.9875 7.4375 9.3125 2.5 15.7875 2.5ZM19.4875 12.8C20.1125 12.8125 20.625 13.3125 20.625 13.95V19.7125C20.625 20.3375 20.1125 20.8625 19.475 20.8625H12.5625C11.925 20.8625 11.4125 20.3375 11.4125 19.7125V13.95C11.4125 13.3125 11.925 12.8125 12.55 12.8V11.5375C12.55 9.625 14.1125 8.075 16.0125 8.075C17.925 8.075 19.4875 9.625 19.4875 11.5375V12.8ZM16.0125 9.825C15.075 9.825 14.3 10.5875 14.3 11.5375V12.8H17.7375V11.5375C17.7375 10.5875 16.9625 9.825 16.0125 9.825Z" fill="#FCBE3A"/>
</svg>
