<svg width="20" height="20" viewBox="0 0 20 20" fill="none" xmlns="http://www.w3.org/2000/svg">
<rect x="0.5" y="0.5" width="19" height="19" rx="9.5" fill="white"/>
<rect x="0.5" y="0.5" width="19" height="19" rx="9.5" stroke="black"/>
<path d="M14.185 8.45312L13.685 9.31813L7.62 5.81813L8.12 4.95312L9.64 5.82813L10.32 5.64312L12.485 6.89313L12.67 7.57812L14.185 8.45312ZM7 13.4981V7.49813H9.535L13 9.49813V13.4981C13 13.7633 12.8946 14.0177 12.7071 14.2052C12.5196 14.3928 12.2652 14.4981 12 14.4981H8C7.73478 14.4981 7.48043 14.3928 7.29289 14.2052C7.10536 14.0177 7 13.7633 7 13.4981ZM8 13.4981H12V10.0981L9.23 8.49813H8V13.4981Z" fill="black"/>
</svg>
